<svg xmlns="http://www.w3.org/2000/svg" xmlns:xlink="http://www.w3.org/1999/xlink" version="1.1" width="256" height="256" viewBox="0 0 256 256" xml:space="preserve">

<defs>
</defs>
<g style="stroke: none; stroke-width: 0; stroke-dasharray: none; stroke-linecap: butt; stroke-linejoin: miter; stroke-miterlimit: 10; fill: none; fill-rule: nonzero; opacity: 1;" transform="translate(1.4065934065934016 1.4065934065934016) scale(2.81 2.81)" >
	<path d="M 73.756 35.924 L 63.202 48.643 h 5.022 c -0.37 10.646 -7.882 19.456 -17.894 21.81 V 39.561 h 6.274 v -10.88 h -6.274 v -9.708 c 2.973 -1.938 4.831 -5.442 4.385 -9.346 c -0.51 -4.457 -4.138 -8.072 -8.596 -8.566 C 40.216 0.407 35.22 5.009 35.22 10.779 c 0 3.434 1.773 6.449 4.451 8.194 v 9.708 h -6.274 v 10.88 h 6.274 v 30.891 c -10.013 -2.354 -17.525 -11.164 -17.894 -21.81 h 5.022 L 16.244 35.924 L 5.69 48.643 h 4.801 c 0.332 14.295 9.349 26.437 21.98 31.359 c 4.87 1.898 9.191 4.978 12.529 9 l 0 0 l 0 0 c 3.338 -4.022 7.659 -7.102 12.529 -9 c 12.631 -4.922 21.647 -17.063 21.98 -31.359 h 4.801 L 73.756 35.924 z" style="stroke: none; stroke-width: 1; stroke-dasharray: none; stroke-linecap: butt; stroke-linejoin: miter; stroke-miterlimit: 10; fill: rgb(127,161,255); fill-rule: nonzero; opacity: 1;" transform=" matrix(1 0 0 1 0 0) " stroke-linecap="round" />
	<circle cx="44.996" cy="10.776" r="3.246" style="stroke: none; stroke-width: 1; stroke-dasharray: none; stroke-linecap: butt; stroke-linejoin: miter; stroke-miterlimit: 10; fill: rgb(127,161,255); fill-rule: nonzero; opacity: 1;" transform="  matrix(1 0 0 1 0 0) "/>
	<path d="M 45 90.001 c -0.297 0 -0.58 -0.133 -0.77 -0.361 c -3.195 -3.851 -7.387 -6.861 -12.122 -8.707 c -13.1 -5.105 -21.876 -17.318 -22.58 -31.29 H 5.69 c -0.388 0 -0.74 -0.224 -0.905 -0.575 c -0.165 -0.351 -0.112 -0.765 0.136 -1.064 l 10.554 -12.718 c 0.38 -0.458 1.159 -0.458 1.539 0 l 10.554 12.718 c 0.248 0.299 0.3 0.713 0.136 1.064 c -0.165 0.352 -0.518 0.575 -0.905 0.575 h -3.962 c 0.745 9.131 7.071 16.912 15.835 19.51 V 40.561 h -5.274 c -0.552 0 -1 -0.448 -1 -1 V 28.681 c 0 -0.552 0.448 -1 1 -1 h 5.274 v -8.182 c -2.797 -2.029 -4.451 -5.249 -4.451 -8.719 c 0 -3.062 1.309 -5.99 3.592 -8.034 c 2.281 -2.042 5.348 -3.016 8.417 -2.678 c 4.929 0.546 8.915 4.519 9.479 9.447 c 0.448 3.92 -1.221 7.695 -4.378 9.985 v 8.182 h 5.274 c 0.553 0 1 0.448 1 1 v 10.881 c 0 0.552 -0.447 1 -1 1 h -5.274 v 28.591 c 8.765 -2.599 15.09 -10.379 15.834 -19.51 h -3.962 c -0.388 0 -0.74 -0.224 -0.905 -0.575 c -0.165 -0.351 -0.112 -0.765 0.136 -1.064 l 10.554 -12.718 c 0.381 -0.458 1.158 -0.458 1.539 0 l 10.554 12.718 c 0.247 0.299 0.301 0.713 0.136 1.064 c -0.165 0.352 -0.518 0.575 -0.905 0.575 h -3.837 c -0.704 13.973 -9.481 26.185 -22.581 31.29 c -4.735 1.846 -8.927 4.857 -12.122 8.707 C 45.58 89.868 45.297 90.001 45 90.001 z M 7.82 47.643 h 2.672 c 0.543 0 0.987 0.434 1 0.977 c 0.315 13.568 8.693 25.52 21.343 30.45 c 4.679 1.824 8.863 4.717 12.165 8.402 c 3.303 -3.685 7.486 -6.577 12.165 -8.402 c 12.65 -4.929 21.028 -16.881 21.343 -30.45 c 0.013 -0.543 0.457 -0.977 1 -0.977 h 2.672 l -8.425 -10.152 l -8.425 10.152 h 2.893 c 0.271 0 0.531 0.11 0.72 0.306 c 0.188 0.194 0.289 0.458 0.279 0.729 c -0.378 10.9 -8.053 20.254 -18.664 22.75 c -0.295 0.069 -0.609 -0.001 -0.85 -0.189 c -0.239 -0.19 -0.379 -0.479 -0.379 -0.784 V 39.561 c 0 -0.552 0.447 -1 1 -1 h 5.274 v -8.881 h -5.274 c -0.553 0 -1 -0.448 -1 -1 v -9.708 c 0 -0.338 0.171 -0.653 0.454 -0.838 c 2.811 -1.832 4.319 -5.048 3.938 -8.394 c -0.459 -4.009 -3.702 -7.241 -7.713 -7.686 c -2.536 -0.28 -4.977 0.492 -6.862 2.18 C 37.286 5.9 36.22 8.285 36.22 10.779 c 0 2.975 1.494 5.725 3.997 7.356 c 0.283 0.185 0.454 0.5 0.454 0.838 v 9.708 c 0 0.552 -0.448 1 -1 1 h -5.274 v 8.881 h 5.274 c 0.552 0 1 0.448 1 1 v 30.891 c 0 0.306 -0.14 0.594 -0.379 0.784 c -0.24 0.188 -0.553 0.26 -0.85 0.189 c -10.611 -2.495 -18.286 -11.85 -18.665 -22.749 c -0.009 -0.271 0.092 -0.535 0.28 -0.73 c 0.188 -0.195 0.448 -0.306 0.719 -0.306 h 2.893 l -8.425 -10.152 L 7.82 47.643 z" style="stroke: none; stroke-width: 1; stroke-dasharray: none; stroke-linecap: butt; stroke-linejoin: miter; stroke-miterlimit: 10; fill: rgb(113,0,237); fill-rule: nonzero; opacity: 1;" transform=" matrix(1 0 0 1 0 0) " stroke-linecap="round" />
	<circle cx="44.996" cy="10.776" r="3.246" style="stroke: none; stroke-width: 1; stroke-dasharray: none; stroke-linecap: butt; stroke-linejoin: miter; stroke-miterlimit: 10; fill: rgb(226,226,226); fill-rule: nonzero; opacity: 1;" transform="  matrix(1 0 0 1 0 0) "/>
	<path d="M 45 15.025 c -2.341 0 -4.246 -1.905 -4.246 -4.246 S 42.659 6.533 45 6.533 c 2.341 0 4.246 1.905 4.246 4.246 S 47.341 15.025 45 15.025 z M 45 8.533 c -1.238 0 -2.246 1.008 -2.246 2.246 s 1.008 2.246 2.246 2.246 s 2.246 -1.008 2.246 -2.246 S 46.238 8.533 45 8.533 z" style="stroke: none; stroke-width: 1; stroke-dasharray: none; stroke-linecap: butt; stroke-linejoin: miter; stroke-miterlimit: 10; fill: rgb(113,0,237); fill-rule: nonzero; opacity: 1;" transform=" matrix(1 0 0 1 0 0) " stroke-linecap="round" />
</g>
</svg>